<svg id="icone-telegram" xmlns="http://www.w3.org/2000/svg" xmlns:xlink="http://www.w3.org/1999/xlink" width="24.505" height="20.309" viewBox="0 0 24.505 20.309">
  <defs>
    <clipPath id="clip-path">
      <path id="Caminho_747" data-name="Caminho 747" d="M23.262,0c-.85.015-2.151.468-8.419,3.075Q11.553,4.444,1.684,8.743.082,9.38.006,9.989c-.1.78,1.026,1.024,2.436,1.483a16.117,16.117,0,0,0,3.509.83A4.273,4.273,0,0,0,8.4,11.4q9.223-6.223,9.52-6.291a.515.515,0,0,1,.465.045.455.455,0,0,1,.106.4c-.109.476-5.885,5.728-6.216,6.073C11,12.943,9.557,13.75,11.786,15.218c1.929,1.27,3.05,2.081,5.035,3.383,1.269.832,2.264,1.818,3.576,1.7.6-.055,1.227-.622,1.54-2.313.747-4,2.218-12.655,2.556-16.223.007-.073.011-.151.012-.23V1.468a4.376,4.376,0,0,0-.047-.594.971.971,0,0,0-.321-.611A1.469,1.469,0,0,0,23.3,0Z" transform="translate(0)" fill="none"/>
    </clipPath>
    <linearGradient id="linear-gradient" x1="0.004" y1="0.995" x2="0.018" y2="0.995" gradientUnits="objectBoundingBox">
      <stop offset="0" stop-color="#2aabee"/>
      <stop offset="1" stop-color="#229ed9"/>
    </linearGradient>
  </defs>
  <g id="Grupo_8871" data-name="Grupo 8871" clip-path="url(#clip-path)">
    <rect id="Retângulo_511" data-name="Retângulo 511" width="24.598" height="20.419" transform="translate(-0.093 0)" fill="url(#linear-gradient)"/>
  </g>
</svg>
